<svg width="139" height="20" viewBox="0 0 139 20" fill="none" xmlns="http://www.w3.org/2000/svg">
<g clip-path="url(#clip0_985_5379)">
<path d="M9.93072 4.61657C11.2056 4.61657 12.239 3.58311 12.239 2.30828C12.239 1.03345 11.2056 0 9.93072 0C8.65589 0 7.62244 1.03345 7.62244 2.30828C7.62244 3.58311 8.65589 4.61657 9.93072 4.61657Z" fill="#6CE1A7"/>
<path d="M11.249 6.59143L9.25366 15.6296C8.69454 18.179 6.43755 19.9897 3.83175 19.9897L5.89895 10.5412H0L0.866889 6.5863H11.249V6.59143Z" fill="#27416B"/>
<path d="M31.1669 6.59143C30.1205 7.4891 29.4383 8.64837 29.1356 10.0333L29.0279 10.5463H21.113L20.2205 14.6089C20.1641 14.8653 20.1897 15.1064 20.2923 15.3321C20.3898 15.5527 20.5693 15.7271 20.8155 15.8553C21.0566 15.9785 21.3541 16.0349 21.7337 16.0349H28.3405L27.5044 19.8205L27.4736 19.9897H20.0718C18.3585 19.9897 17.0864 19.5742 16.2964 18.7433C15.5116 17.9225 15.2859 16.7376 15.6193 15.2142L16.6504 10.5412H12.0697L12.9417 6.5863H17.5173L17.6455 5.92459C17.943 4.44729 19.0305 3.25724 20.4719 2.83662L22.9648 2.11336L21.9799 6.5863H31.1669V6.59143Z" fill="#27416B"/>
<path d="M76.3324 1.27213L75.0347 3.0931C74.1986 4.26776 72.8392 4.97051 71.3978 4.97051H65.2681C64.909 4.97051 64.5961 5.05771 64.3345 5.24237C64.0678 5.42704 63.8934 5.70916 63.8113 6.07336L63.6984 6.59657H70.8644L69.9975 10.5514H62.8315L61.7184 15.6143C61.1593 18.1739 58.8921 20 56.2658 20L58.3381 10.5514H35.8759C35.6348 10.5514 35.4399 10.6027 35.3014 10.7104C35.1578 10.8182 35.0706 10.9515 35.0347 11.1105L35.0193 11.1875C34.9577 11.444 35.0501 11.603 35.1321 11.6902C35.245 11.803 35.4143 11.8748 35.6348 11.8902H35.6451L48.0431 11.9672C49.187 11.9672 50.0488 12.2955 50.613 12.9418C51.1721 13.5881 51.3363 14.4447 51.1055 15.5014L50.9362 16.276C50.7823 16.9582 50.4643 17.5891 49.9872 18.1431C49.5051 18.7074 48.8998 19.1588 48.197 19.4973C47.4994 19.8307 46.7454 20 45.9554 20H29.1614L30.0283 16.0451H45.8015C46.0375 16.0451 46.2324 15.9938 46.3914 15.8913C46.5556 15.7835 46.6582 15.6399 46.6992 15.4604L46.7197 15.3578C46.771 15.1423 46.7043 14.9577 46.5402 14.85C46.4068 14.7576 46.2478 14.7012 46.0734 14.6807H46.058L33.5574 14.5986C32.4699 14.5986 31.6595 14.2908 31.0849 13.6497C30.5207 13.0187 30.3514 12.198 30.5823 11.1465L30.7515 10.3975C30.9977 9.26392 31.5876 8.33547 32.5007 7.64299C33.1932 7.11465 33.9934 6.78123 34.8859 6.65299C35.1732 6.61196 35.4707 6.59657 35.7733 6.59657H59.205L59.3486 5.95538C59.6564 4.53963 60.3232 3.39575 61.3235 2.54938C62.3186 1.703 63.5907 1.27213 65.1091 1.27213H76.3324Z" fill="#27416B"/>
<path d="M78.3073 1.27213C78.969 1.27213 79.5537 1.70813 79.7435 2.33907L80.2103 3.89844H79.8153L81.7748 1.27213H82.575L83.4573 3.88305H83.0521L84.9449 1.27213H86.1246L83.4881 4.97051H82.6674L81.7953 2.32881H82.2006L80.2308 4.97051H79.3998L78.3021 1.27213H78.3073Z" fill="#6CE1A7"/>
<path d="M86.3144 2.18518H84.7499L84.9448 1.27213H89.1151L88.9202 2.18518H87.3352L86.9556 3.97025C86.8325 4.54989 86.3195 4.97051 85.7245 4.97051L86.3144 2.18518Z" fill="#6CE1A7"/>
<path d="M118.533 11.4081H118.087L117.204 15.6656C117.025 16.5478 117.066 17.3173 117.333 17.9738C117.594 18.6253 118.056 19.128 118.723 19.4819C119.379 19.8307 120.21 20.0051 121.216 20.0051H131.239C132.249 20.0051 133.167 19.8359 133.973 19.4922C134.778 19.1485 135.45 18.6561 135.978 17.9995C136.507 17.348 136.861 16.5684 137.045 15.6758L137.999 11.0387C138.2 10.1257 138.169 9.3306 137.907 8.66376C137.651 7.99179 137.194 7.48397 136.543 7.14029C135.886 6.78636 135.06 6.61195 134.055 6.61195H97.5122L95.7579 15.0603H110.044C110.459 15.0603 110.731 15.1013 110.869 15.1988C110.998 15.2911 111.044 15.4296 111.008 15.6143L110.982 15.7425C110.946 15.9733 110.828 16.1323 110.639 16.2349C110.449 16.3324 110.146 16.3837 109.726 16.3837H76.912L76.9736 16.0862C77.0043 15.9733 77.071 15.8707 77.1839 15.7784C77.2967 15.6861 77.4198 15.6348 77.5583 15.6194L89.6897 14.6397C89.9667 14.6089 90.1872 14.5832 90.3411 14.5525C91.2285 14.3524 91.962 13.942 92.5314 13.3316C93.1008 12.7212 93.4804 11.9877 93.6599 11.1311L93.8907 10.0898C94.0446 9.34599 94.0138 8.71506 93.8035 8.19697C93.5983 7.67376 93.2444 7.28392 92.7417 7.01719C92.239 6.75558 91.6184 6.62221 90.8797 6.62221H79.5332C78.4611 6.62221 77.4609 7.0018 76.6761 7.63786C75.8861 8.27905 75.3116 9.18184 75.0962 10.2385H89.1716C89.3819 10.2385 89.5306 10.2693 89.6281 10.3309C89.7256 10.3975 89.7563 10.4847 89.7358 10.5976V10.7104C89.7102 10.7925 89.6384 10.8797 89.5255 10.9669C89.4127 11.0541 89.2639 11.1054 89.069 11.1157L76.9171 12.1211C75.8759 12.2083 75.0295 12.5622 74.3986 13.1829C73.7676 13.8035 73.3521 14.5576 73.1572 15.4604L72.2134 20.0308H109.859C110.7 20.0308 111.49 19.882 112.203 19.5743C112.921 19.2716 113.516 18.8356 114.004 18.2714C114.481 17.7071 114.799 17.0557 114.953 16.317L115.137 15.3732C115.306 14.5627 115.291 13.86 115.101 13.2752C114.901 12.6904 114.517 12.239 113.947 11.9159C113.378 11.5978 112.619 11.4388 111.67 11.4388H100.605L100.862 10.2437H132.47C133.06 10.2437 133.455 10.3565 133.675 10.5873C133.891 10.8182 133.942 11.1772 133.829 11.6799L133.142 15.009C133.029 15.5219 132.839 15.881 132.567 16.0862C132.301 16.2965 131.885 16.3939 131.326 16.3939H122.642C122.149 16.3939 121.806 16.276 121.595 16.0349C121.39 15.7938 121.334 15.445 121.426 15.0038C121.816 13.1675 120.415 11.4388 118.538 11.4388L118.533 11.4081Z" fill="#6CE1A7"/>
</g>
<defs>
<clipPath id="clip0_985_5379">
<rect width="138.133" height="20" fill="white"/>
</clipPath>
</defs>
</svg>
