<svg width="139" height="20" viewBox="0 0 139 20" fill="none" xmlns="http://www.w3.org/2000/svg">
<g clip-path="url(#clip0_985_5433)">
<path d="M9.93072 4.61657C11.2056 4.61657 12.239 3.58311 12.239 2.30828C12.239 1.03345 11.2056 0 9.93072 0C8.65589 0 7.62244 1.03345 7.62244 2.30828C7.62244 3.58311 8.65589 4.61657 9.93072 4.61657Z" fill="#FFD15F"/>
<path d="M11.249 6.59143L9.25366 15.6296C8.69454 18.179 6.43755 19.9897 3.83175 19.9897L5.89895 10.5412H0L0.866889 6.5863H11.249V6.59143Z" fill="#27416B"/>
<path d="M31.1669 6.59144C30.1205 7.48911 29.4383 8.64838 29.1356 10.0334L29.0279 10.5463H21.113L20.2205 14.6089C20.1641 14.8654 20.1897 15.1064 20.2923 15.3321C20.3898 15.5527 20.5693 15.7271 20.8155 15.8554C21.0566 15.9785 21.3541 16.0349 21.7337 16.0349H28.3405L27.5044 19.8205L27.4737 19.9898H20.0718C18.3585 19.9898 17.0864 19.5743 16.2964 18.7433C15.5116 17.9226 15.2859 16.7376 15.6193 15.2142L16.6504 10.5412H12.0697L12.9417 6.58632H17.5173L17.6455 5.92461C17.943 4.4473 19.0305 3.25726 20.4719 2.83664L22.9648 2.11337L21.9799 6.58632H31.1669V6.59144Z" fill="#27416B"/>
<path d="M76.3324 1.27213L75.0347 3.0931C74.1986 4.26776 72.8392 4.97051 71.3978 4.97051H65.2681C64.909 4.97051 64.5961 5.05771 64.3345 5.24237C64.0678 5.42704 63.8934 5.70916 63.8113 6.07336L63.6984 6.59657H70.8644L69.9975 10.5514H62.8315L61.7184 15.6143C61.1593 18.1739 58.8921 20 56.2658 20L58.3381 10.5514H35.8759C35.6348 10.5514 35.4399 10.6027 35.3014 10.7104C35.1578 10.8182 35.0706 10.9515 35.0347 11.1105L35.0193 11.1875C34.9577 11.444 35.0501 11.603 35.1321 11.6902C35.245 11.803 35.4143 11.8748 35.6348 11.8902H35.6451L48.0431 11.9672C49.187 11.9672 50.0488 12.2955 50.613 12.9418C51.1721 13.5881 51.3363 14.4447 51.1055 15.5014L50.9362 16.276C50.7823 16.9582 50.4643 17.5891 49.9872 18.1431C49.5051 18.7074 48.8998 19.1588 48.197 19.4973C47.4994 19.8307 46.7454 20 45.9554 20H29.1614L30.0283 16.0451H45.8015C46.0375 16.0451 46.2324 15.9938 46.3914 15.8913C46.5556 15.7835 46.6582 15.6399 46.6992 15.4604L46.7197 15.3578C46.771 15.1423 46.7043 14.9577 46.5402 14.85C46.4068 14.7576 46.2478 14.7012 46.0734 14.6807H46.058L33.5574 14.5986C32.4699 14.5986 31.6595 14.2908 31.0849 13.6497C30.5207 13.0187 30.3514 12.198 30.5823 11.1465L30.7515 10.3975C30.9977 9.26392 31.5876 8.33547 32.5007 7.64299C33.1932 7.11465 33.9934 6.78123 34.8859 6.65299C35.1732 6.61196 35.4707 6.59657 35.7733 6.59657H59.205L59.3486 5.95538C59.6564 4.53963 60.3232 3.39575 61.3235 2.54938C62.3186 1.703 63.5907 1.27213 65.1091 1.27213H76.3324Z" fill="#27416B"/>
<path d="M78.3073 1.27213C78.969 1.27213 79.5537 1.70813 79.7435 2.33907L80.2103 3.89844H79.8153L81.7748 1.27213H82.575L83.4573 3.88305H83.0521L84.9449 1.27213H86.1246L83.4881 4.97051H82.6674L81.7953 2.32881H82.2006L80.2308 4.97051H79.3998L78.3021 1.27213H78.3073Z" fill="#FFD15F"/>
<path d="M86.3195 2.18518H84.755L84.9499 1.27213H89.1202L88.9253 2.18518H87.3403L86.9607 3.97025C86.8376 4.54989 86.3246 4.97051 85.7296 4.97051L86.3195 2.18518Z" fill="#FFD15F"/>
<path d="M116.727 11.0182L115.768 15.6553C115.589 16.553 115.229 17.3275 114.701 17.9892C114.173 18.6458 113.506 19.1434 112.696 19.4819C111.89 19.8205 110.977 19.9949 109.961 19.9949H99.9384C98.933 19.9949 98.102 19.8205 97.4454 19.4717C96.7837 19.1177 96.3169 18.615 96.0553 17.9636C95.7886 17.307 95.7476 16.5376 95.9322 15.6502L96.8043 11.3978H97.2505C98.9176 11.3978 100.215 12.7571 100.215 14.3524C100.215 14.5576 100.19 14.7628 100.149 14.9731C100.051 15.4142 100.108 15.7528 100.318 15.9938C100.523 16.2401 100.872 16.358 101.359 16.358H110.044C110.603 16.358 111.018 16.2503 111.29 16.0503C111.557 15.8451 111.747 15.486 111.859 14.9731L112.547 11.6389C112.66 11.1413 112.608 10.7771 112.393 10.5514C112.177 10.3206 111.777 10.2026 111.198 10.2026H78.5124L78.2559 11.3978H89.3203C90.2692 11.3978 91.0233 11.5568 91.5978 11.88C92.1672 12.2031 92.5519 12.6545 92.7519 13.2393C92.9417 13.8241 92.9571 14.5217 92.7878 15.3373L92.6032 16.276C92.4493 17.0197 92.1313 17.6712 91.6542 18.2354C91.172 18.7946 90.577 19.2254 89.8537 19.5383C89.1407 19.841 88.3508 19.9949 87.5096 19.9949H72.3108L73.0597 16.358H87.3813C87.8019 16.358 88.0995 16.3067 88.2944 16.2093C88.479 16.1118 88.597 15.9425 88.6381 15.7168L88.6637 15.5886C88.6996 15.4039 88.6586 15.2655 88.5252 15.1731C88.3867 15.0808 88.1148 15.0295 87.6994 15.0295H73.4188L75.1731 6.5863H112.783C113.788 6.5863 114.619 6.76071 115.271 7.10951C115.927 7.46345 116.378 7.97127 116.64 8.64324C116.897 9.31521 116.927 10.1 116.732 11.0131L116.727 11.0182Z" fill="#FFD15F"/>
<path d="M138.471 8.64837C138.215 7.9764 137.758 7.46858 137.107 7.11464C136.45 6.76583 135.624 6.59143 134.619 6.59143H124.534C123.519 6.59143 122.611 6.76583 121.811 7.11464C121.01 7.46858 120.349 7.97127 119.815 8.63298C119.451 9.08951 119.164 9.61785 118.959 10.2026H133.029C133.619 10.2026 134.014 10.3206 134.234 10.5514C134.45 10.7771 134.501 11.1413 134.388 11.6389L133.701 14.9731C133.588 15.486 133.398 15.8451 133.131 16.0503C132.86 16.2554 132.444 16.358 131.885 16.358H123.201C122.708 16.358 122.365 16.2401 122.154 15.9938C121.949 15.7528 121.893 15.4091 121.985 14.9731C122.375 13.1316 120.969 11.4029 119.092 11.4029H118.651L117.769 15.6553C117.589 16.5427 117.63 17.3121 117.897 17.9687C118.158 18.6202 118.62 19.1228 119.287 19.4768C119.943 19.8256 120.774 20 121.78 20H131.803C132.819 20 133.732 19.8256 134.537 19.487C135.342 19.1434 136.014 18.6509 136.543 17.9944C137.071 17.3378 137.425 16.5632 137.61 15.6604L138.569 11.0233C138.759 10.1103 138.728 9.32547 138.471 8.6535V8.64837Z" fill="#FFD15F"/>
</g>
<defs>
<clipPath id="clip0_985_5433">
<rect width="138.697" height="20" fill="white"/>
</clipPath>
</defs>
</svg>
