<svg width="139" height="20" viewBox="0 0 139 20" fill="none" xmlns="http://www.w3.org/2000/svg">
<g clip-path="url(#clip0_985_5483)">
<path d="M9.93072 4.61657C11.2056 4.61657 12.239 3.58311 12.239 2.30828C12.239 1.03345 11.2056 0 9.93072 0C8.65589 0 7.62244 1.03345 7.62244 2.30828C7.62244 3.58311 8.65589 4.61657 9.93072 4.61657Z" fill="#FFA665"/>
<path d="M11.249 6.59143L9.25366 15.6296C8.69454 18.179 6.43755 19.9897 3.83175 19.9897L5.89895 10.5412H0L0.866889 6.5863H11.249V6.59143Z" fill="#27416B"/>
<path d="M31.1669 6.59144C30.1205 7.48911 29.4383 8.64838 29.1356 10.0334L29.0279 10.5463H21.113L20.2205 14.6089C20.1641 14.8654 20.1897 15.1064 20.2923 15.3321C20.3898 15.5527 20.5693 15.7271 20.8155 15.8554C21.0566 15.9785 21.3541 16.0349 21.7337 16.0349H28.3405L27.5044 19.8205L27.4737 19.9898H20.0718C18.3585 19.9898 17.0864 19.5743 16.2964 18.7433C15.5116 17.9226 15.2859 16.7376 15.6193 15.2142L16.6504 10.5412H12.0697L12.9417 6.58631H17.5173L17.6455 5.92461C17.943 4.4473 19.0305 3.25726 20.4719 2.83664L22.9648 2.11337L21.9799 6.58631H31.1669V6.59144Z" fill="#27416B"/>
<path d="M76.3324 1.27213L75.0347 3.0931C74.1986 4.26776 72.8392 4.97051 71.3978 4.97051H65.2681C64.909 4.97051 64.5961 5.05771 64.3345 5.24237C64.0678 5.42704 63.8934 5.70916 63.8113 6.07336L63.6984 6.59657H70.8644L69.9975 10.5514H62.8315L61.7184 15.6143C61.1593 18.1739 58.8921 20 56.2658 20L58.3381 10.5514H35.8759C35.6348 10.5514 35.4399 10.6027 35.3014 10.7104C35.1578 10.8182 35.0706 10.9515 35.0347 11.1105L35.0193 11.1875C34.9577 11.444 35.0501 11.603 35.1321 11.6902C35.245 11.803 35.4143 11.8748 35.6348 11.8902H35.6451L48.0431 11.9672C49.187 11.9672 50.0488 12.2955 50.613 12.9418C51.1721 13.5881 51.3363 14.4447 51.1055 15.5014L50.9362 16.276C50.7823 16.9582 50.4643 17.5891 49.9872 18.1431C49.5051 18.7074 48.8998 19.1588 48.197 19.4973C47.4994 19.8307 46.7454 20 45.9554 20H29.1614L30.0283 16.0451H45.8015C46.0375 16.0451 46.2324 15.9938 46.3914 15.8913C46.5556 15.7835 46.6582 15.6399 46.6992 15.4604L46.7197 15.3578C46.771 15.1423 46.7043 14.9577 46.5402 14.85C46.4068 14.7576 46.2478 14.7012 46.0734 14.6807H46.058L33.5574 14.5986C32.4699 14.5986 31.6595 14.2908 31.0849 13.6497C30.5207 13.0187 30.3514 12.198 30.5823 11.1465L30.7515 10.3975C30.9977 9.26392 31.5876 8.33547 32.5007 7.64299C33.1932 7.11465 33.9934 6.78123 34.8859 6.65299C35.1732 6.61196 35.4707 6.59657 35.7733 6.59657H59.205L59.3486 5.95538C59.6564 4.53963 60.3232 3.39575 61.3235 2.54938C62.3186 1.703 63.5907 1.27213 65.1091 1.27213H76.3324Z" fill="#27416B"/>
<path d="M78.3073 1.27213C78.969 1.27213 79.5537 1.70813 79.7435 2.33907L80.2103 3.89844H79.8153L81.7748 1.27213H82.575L83.4573 3.88305H83.0521L84.9449 1.27213H86.1246L83.4881 4.97051H82.6674L81.7953 2.32881H82.2006L80.2308 4.97051H79.3998L78.3021 1.27213H78.3073Z" fill="#FFA665"/>
<path d="M86.3195 2.18518H84.755L84.9499 1.27213H89.1202L88.9253 2.18518H87.3403L86.9607 3.97025C86.8376 4.54989 86.3246 4.97051 85.7296 4.97051L86.3195 2.18518Z" fill="#FFA665"/>
<path d="M79.9743 15.7425C80.8771 14.3268 81.9646 13.0495 83.2265 11.921C84.4935 10.7874 85.8271 9.93075 87.2326 9.34599L87.4224 10.1975H74.4037L75.1526 6.5863H94.137L93.4291 10.0231C91.1772 10.89 89.3255 11.8287 87.8789 12.8443C86.4324 13.8548 85.3142 14.9423 84.5294 16.1016C83.7445 17.2608 83.2059 18.5535 82.9136 19.9795H78.0764C78.4355 18.5689 79.0716 17.1582 79.9743 15.7425Z" fill="#FFA665"/>
<path d="M138.518 11.0131L137.558 15.6502C137.379 16.5478 137.02 17.3224 136.491 17.979C135.963 18.6355 135.296 19.1331 134.491 19.4717C133.686 19.8102 132.773 19.9846 131.757 19.9846H121.744C120.739 19.9846 119.908 19.8102 119.251 19.4665C118.589 19.1126 118.123 18.6099 117.861 17.9584C117.594 17.3019 117.553 16.5324 117.738 15.645L118.61 11.3927H119.056C120.723 11.3927 122.016 12.752 122.016 14.3421C122.016 14.5473 121.99 14.7525 121.949 14.9628C121.852 15.4039 121.908 15.7425 122.119 15.9836C122.324 16.2298 122.672 16.3478 123.16 16.3478H131.834C132.393 16.3478 132.808 16.2401 133.08 16.04C133.347 15.8348 133.537 15.4758 133.65 14.9628L134.337 11.6286C134.45 11.1311 134.399 10.7669 134.183 10.5463C133.968 10.3155 133.568 10.1975 132.988 10.1975H100.333L100.077 11.3927H111.131C112.08 11.3927 112.834 11.5517 113.403 11.8748C113.973 12.198 114.358 12.6494 114.558 13.2342C114.747 13.8189 114.763 14.5165 114.593 15.327L114.409 16.2606C114.255 17.0044 113.937 17.6558 113.46 18.2201C112.978 18.7792 112.383 19.2101 111.665 19.523C110.952 19.8256 110.167 19.9795 109.32 19.9795H94.1318L94.8807 16.3478H109.187C109.608 16.3478 109.905 16.2965 110.1 16.199C110.285 16.1016 110.403 15.9323 110.439 15.7117L110.464 15.5835C110.5 15.3988 110.459 15.2603 110.326 15.168C110.187 15.0757 109.915 15.0244 109.5 15.0244H95.2296L96.9839 6.59143H134.558C135.563 6.59143 136.394 6.76583 137.04 7.10951C137.697 7.46345 138.148 7.97127 138.41 8.63811C138.666 9.30495 138.697 10.0949 138.502 11.0028L138.518 11.0131Z" fill="#FFA665"/>
</g>
<defs>
<clipPath id="clip0_985_5483">
<rect width="138.641" height="20" fill="white"/>
</clipPath>
</defs>
</svg>
