<svg  xmlns="http://www.w3.org/2000/svg" viewBox="0 0 269.06 38.99">
  <defs>
    <style>
      .cls-1 {
        fill: #b9a266;
      }

      .cls-1, .cls-2 {
        stroke-width: 0px;
      }

      .cls-2 {
        fill: #003f6e;
      }
    </style>
  </defs>
  <g id="Calque_1-2" data-name="Calque 1-2">
    <circle class="cls-1" cx="19.36" cy="4.5" r="4.5"/>
    <path class="cls-2" d="M21.93,12.85l-3.89,17.62c-1.09,4.97-5.49,8.5-10.57,8.5l4.03-18.42H0l1.69-7.71h20.24Z"/>
    <path class="cls-2" d="M60.76,12.85c-2.04,1.75-3.37,4.01-3.96,6.71l-.21,1h-15.43l-1.74,7.92c-.11.5-.06.97.14,1.41.19.43.54.77,1.02,1.02.47.24,1.05.35,1.79.35h12.88l-1.63,7.38-.06.33h-14.43c-3.34,0-5.82-.81-7.36-2.43-1.53-1.6-1.97-3.91-1.32-6.88l2.01-9.11h-8.93l1.7-7.71h8.92l.25-1.29c.58-2.88,2.7-5.2,5.51-6.02l4.86-1.41-1.92,8.72h17.91Z"/>
    <path class="cls-2" d="M148.81,2.48l-2.53,3.55c-1.63,2.29-4.28,3.66-7.09,3.66h-11.95c-.7,0-1.31.17-1.82.53-.52.36-.86.91-1.02,1.62l-.22,1.02h13.97l-1.69,7.71h-13.97l-2.17,9.87c-1.09,4.99-5.51,8.55-10.63,8.55l4.04-18.42h-43.79c-.47,0-.85.1-1.12.31-.28.21-.45.47-.52.78l-.03.15c-.12.5.06.81.22.98.22.22.55.36.98.39h.02l24.17.15c2.23,0,3.91.64,5.01,1.9,1.09,1.26,1.41,2.93.96,4.99l-.33,1.51c-.3,1.33-.92,2.56-1.85,3.64-.94,1.1-2.12,1.98-3.49,2.64-1.36.65-2.83.98-4.37.98h-32.74l1.69-7.71h30.75c.46,0,.84-.1,1.15-.3.32-.21.52-.49.6-.84l.04-.2c.1-.42-.03-.78-.35-.99-.26-.18-.57-.29-.91-.33h-.03l-24.37-.16c-2.12,0-3.7-.6-4.82-1.85-1.1-1.23-1.43-2.83-.98-4.88l.33-1.46c.48-2.21,1.63-4.02,3.41-5.37,1.35-1.03,2.91-1.68,4.65-1.93.56-.08,1.14-.11,1.73-.11h45.68l.28-1.25c.6-2.76,1.9-4.99,3.85-6.64,1.94-1.65,4.42-2.49,7.38-2.49h21.88,0Z"/>
    <path class="cls-1" d="M182.16,2.48l-7.18,9.86-3.29-9.86h-3.54l-7.46,9.92-1.48-5.02c-.86-2.9-3.52-4.89-6.55-4.89h0l4.72,16.33h3.67l7.5-9.99,3.25,9.99h3.62l11.76-16.33h-5.03,0Z"/>
    <path class="cls-1" d="M233.31,14.74l2.69-12.26h-4.48l-3.58,16.33h17.63l.89-4.06h-13.15Z"/>
    <path class="cls-1" d="M268.89,4.57c-.22-.68-.66-1.21-1.3-1.56-.64-.36-1.47-.53-2.47-.53h-13.98l-3.58,16.33h13.93c1.02,0,1.93-.17,2.73-.52.8-.34,1.46-.85,1.99-1.52s.9-1.48,1.11-2.44l1.6-7.32c.21-.94.2-1.75-.03-2.44ZM264.3,7.89l-1.2,5.47c-.11.52-.3.88-.56,1.08s-.65.3-1.17.3h-8.41l1.8-8.23h8.31c.56,0,.93.1,1.12.31s.23.56.12,1.07h0Z"/>
    <path class="cls-1" d="M227.69,6.59l-.44,2.22c-.19.87-.53,1.63-1.01,2.28-.49.65-1.11,1.16-1.85,1.52-.42.2-.86.35-1.33.44l2.34,5.76h-5.03l-2.47-5.65h-5.91l-1.2,5.65h-4.47l2.05-9.69h13.36c.33,0,.61-.07.81-.23.21-.15.35-.4.42-.73l.13-.67c.03-.21.02-.38-.02-.53-.06-.14-.15-.25-.29-.32-.14-.08-.32-.12-.52-.12h-28.8c-.52,0-.93.09-1.21.32-.28.24-.48.6-.58,1.08l-1.17,5.47c-.09.45-.03.8.17,1.03s.54.35,1.01.35h7.06c.48,0,.85-.11,1.11-.32.25-.2.43-.56.53-1.07l.91-4.27h4.46l-1.13,5.31c-.17.9-.53,1.69-1.06,2.34-.53.66-1.2,1.17-2.01,1.51s-1.73.52-2.74.52h-9.03c-1.01,0-1.84-.18-2.49-.53-.65-.36-1.1-.86-1.35-1.51s-.28-1.43-.09-2.33l1.59-7.48c.2-.95.57-1.76,1.09-2.43.53-.67,1.18-1.17,1.97-1.52.78-.35,1.71-.52,2.74-.52h30.78c.92,0,1.69.17,2.3.51.62.33,1.05.82,1.3,1.45.25.62.28,1.34.09,2.16h-.02Z"/>
    <path class="cls-1" d="M207.09,22.66h4.48l-3.46,16.33h-4.48l3.46-16.33Z"/>
    <path class="cls-1" d="M140.81,38.99c.5-2.37,2.59-4.06,5.01-4.06h8.97c.22,0,.42-.07.58-.21.17-.14.26-.31.3-.52l.05-.26c.03-.14.02-.26-.05-.36-.07-.1-.18-.17-.34-.21t0,0h-.04l-9.84-1.12c-.19-.04-.38-.06-.55-.08-.96-.19-1.65-.57-2.07-1.15-.43-.57-.52-1.39-.27-2.45l.39-2.06c.17-.82.49-1.51.95-2.1.46-.58,1.05-1.02,1.77-1.31.72-.3,1.54-.44,2.46-.44h13.44c-.5,2.35-2.58,4.04-4.99,4.04h-8.45c-.24,0-.44.06-.58.18-.15.12-.25.29-.3.5l-.08.36c-.02.09,0,.2.03.34.03.14.14.22.31.23h.05l10.16,1.12.05.03c1.02.14,1.77.52,2.24,1.13.47.62.57,1.48.31,2.59l-.39,1.9c-.14.68-.61,1.7-1.09,2.2s-1.07.92-1.74,1.22c-.72.32-1.51.48-2.38.48h-13.93.01Z"/>
    <path class="cls-1" d="M203.06,24.61c-.25-.62-.69-1.11-1.3-1.45-.62-.34-1.39-.51-2.31-.51h-34.28l-3.46,16.33h17.71l.86-4.06h-13.2l.44-2.16h11.67l.89-4.07h-11.67l.41-2h28.88c.21,0,.38.04.53.12.14.08.23.19.28.33s.06.31.02.52l-.13.67c-.07.33-.21.57-.41.74-.21.15-.48.23-.81.23h-13.36l-2.06,9.69h4.48l1.2-5.65h5.91l2.48,5.65h5.02l-2.34-5.76c.47-.09.91-.23,1.32-.44.75-.36,1.37-.87,1.85-1.52.49-.66.82-1.42,1.01-2.28l.45-2.21c.19-.82.16-1.54-.09-2.16h0Z"/>
    <path class="cls-1" d="M250.14,30.59c.47.62.57,1.48.31,2.59l-.39,1.9c-.14.68-.61,1.69-1.09,2.2-.48.52-1.06.92-1.74,1.22-.72.32-1.51.48-2.39.48h-33.75l3.46-16.33h17.71l-.86,4.04h-13.21l-.41,2h11.67l-.88,4.07h-11.67l-.44,2.16h28.44c.22,0,.42-.07.58-.21.17-.14.27-.31.3-.52l.05-.27c.04-.14.02-.26-.05-.36-.07-.1-.18-.16-.33-.2h-.04l-9.85-1.12c-.19-.04-.38-.06-.54-.08-.96-.19-1.65-.57-2.07-1.14-.43-.57-.52-1.39-.28-2.45l.39-2.06c.18-.82.49-1.51.95-2.1.46-.58,1.05-1.02,1.77-1.31.72-.3,1.54-.44,2.46-.44h13.44c-.25,1.17-.9,2.19-1.78,2.9-.88.72-2.01,1.14-3.21,1.14h-8.46c-.24,0-.44.06-.59.18s-.25.29-.3.5l-.08.36c-.02.09,0,.2.02.34.04.14.14.22.32.23h.05l10.16,1.12.05.02c1.03.14,1.77.51,2.24,1.13h.04Z"/>
  </g>
</svg>